<svg xmlns="http://www.w3.org/2000/svg" xmlns:graphite="https://graphite.art" viewBox="0 0 1920 300" width="1920" height="300"><defs><clipPath id="artboard-15714413083010707338"><rect x="0" y="0" width="1920" height="300" /></clipPath></defs><g>
<rect fill="#ffffff" x="0" y="0" width="1920" height="300"/>
<g clip-path="url(#artboard-15714413083010707338)">
	<g>
		<path d="M37.40914911487641,288.92636071174985 C37.40914911487641,288.92636071174985 36.091798753027064,18.604875420015787 36.091798753027064,18.604875420015787 C36.091798753027064,18.604875420015787 62.945479206109866,18.604875420015787 62.945479206109866,18.604875420015787 C62.945479206109866,18.604875420015787 61.628128844260516,183.57180803800628 61.628128844260516,183.57180803800628 C61.628128844260516,183.57180803800628 58.689424190904276,251.7424009445462 58.689424190904276,251.7424009445462 C58.689424190904276,251.7424009445462 61.628128844260516,251.7424009445462 61.628128844260516,251.7424009445462 C61.628128844260516,251.7424009445462 76.52432139748001,183.57180803800628 76.52432139748001,183.57180803800628 C76.52432139748001,183.57180803800628 122.22624548933032,18.604875420015787 122.22624548933032,18.604875420015787 C122.22624548933032,18.604875420015787 154.4506620330297,18.604875420015787 154.4506620330297,18.604875420015787 C154.4506620330297,18.604875420015787 155.46400846522147,183.57180803800628 155.46400846522147,183.57180803800628 C155.46400846522147,183.57180803800628 153.13331167118037,252.92284411175905 153.13331167118037,252.92284411175905 C153.13331167118037,252.92284411175905 156.27468561097493,252.92284411175905 156.27468561097493,252.92284411175905 C156.27468561097493,252.92284411175905 171.17087816419445,183.57180803800628 171.17087816419445,183.57180803800628 C171.17087816419445,183.57180803800628 213.22475510015425,18.604875420015787 213.22475510015425,18.604875420015787 C213.22475510015425,18.604875420015787 241.39578591508644,18.604875420015787 241.39578591508644,18.604875420015787 C241.39578591508644,18.604875420015787 166.10414600323543,288.92636071174985 166.10414600323543,288.92636071174985 C166.10414600323543,288.92636071174985 133.17038695700182,288.92636071174985 133.17038695700182,288.92636071174985 C133.17038695700182,288.92636071174985 132.35970981124836,141.07585401834507 132.35970981124836,141.07585401834507 C132.35970981124836,141.07585401834507 134.48773731885115,58.14972152164495 134.48773731885115,58.14972152164495 C134.48773731885115,58.14972152164495 131.24502873583742,58.14972152164495 131.24502873583742,58.14972152164495 C131.24502873583742,58.14972152164495 110.77543080556296,142.55140797736107 110.77543080556296,142.55140797736107 C110.77543080556296,142.55140797736107 70.9509160204251,288.92636071174985 70.9509160204251,288.92636071174985 C70.9509160204251,288.92636071174985 37.40914911487641,288.92636071174985 37.40914911487641,288.92636071174985 ZM224.12431526238606,288.92636071174985 C224.12431526238606,288.92636071174985 228.38037027759162,256.46417361339746 228.38037027759162,256.46417361339746 C228.38037027759162,256.46417361339746 249.86331464005787,256.46417361339746 249.86331464005787,256.46417361339746 C249.86331464005787,256.46417361339746 278.33834938464753,51.214617914269695 278.33834938464753,51.214617914269695 C278.33834938464753,51.214617914269695 256.7540703789621,51.214617914269695 256.7540703789621,51.214617914269695 C256.7540703789621,51.214617914269695 261.3141293238252,18.604875420015787 261.3141293238252,18.604875420015787 C261.3141293238252,18.604875420015787 331.5390370747172,18.604875420015787 331.5390370747172,18.604875420015787 C331.5390370747172,18.604875420015787 326.9789781298541,51.214617914269695 326.9789781298541,51.214617914269695 C326.9789781298541,51.214617914269695 305.69870305382625,51.214617914269695 305.69870305382625,51.214617914269695 C305.69870305382625,51.214617914269695 277.2236683092366,256.46417361339746 277.2236683092366,256.46417361339746 C277.2236683092366,256.46417361339746 298.807947314922,256.46417361339746 298.807947314922,256.46417361339746 C298.807947314922,256.46417361339746 294.24788837005883,288.92636071174985 294.24788837005883,288.92636071174985 C294.24788837005883,288.92636071174985 224.12431526238606,288.92636071174985 224.12431526238606,288.92636071174985 ZM328.6262598398409,288.92636071174985 C328.6262598398409,288.92636071174985 365.81607390128005,18.604875420015787 365.81607390128005,18.604875420015787 C365.81607390128005,18.604875420015787 393.1764275704587,18.604875420015787 393.1764275704587,18.604875420015787 C393.1764275704587,18.604875420015787 360.44533781066355,254.1032872789719 360.44533781066355,254.1032872789719 C360.44533781066355,254.1032872789719 425.907517330254,254.1032872789719 425.907517330254,254.1032872789719 C425.907517330254,254.1032872789719 420.84078516929503,288.92636071174985 420.84078516929503,288.92636071174985 C420.84078516929503,288.92636071174985 328.6262598398409,288.92636071174985 328.6262598398409,288.92636071174985 ZM446.68680936790577,288.92636071174985 C446.68680936790577,288.92636071174985 483.87662342934493,18.604875420015787 483.87662342934493,18.604875420015787 C483.87662342934493,18.604875420015787 511.23697709852365,18.604875420015787 511.23697709852365,18.604875420015787 C511.23697709852365,18.604875420015787 478.5058873387285,254.1032872789719 478.5058873387285,254.1032872789719 C478.5058873387285,254.1032872789719 543.9680668583189,254.1032872789719 543.9680668583189,254.1032872789719 C543.9680668583189,254.1032872789719 538.9013346973599,288.92636071174985 538.9013346973599,288.92636071174985 C538.9013346973599,288.92636071174985 446.68680936790577,288.92636071174985 446.68680936790577,288.92636071174985 ZM558.3632763731623,288.92636071174985 C558.3632763731623,288.92636071174985 562.619331388368,256.46417361339746 562.619331388368,256.46417361339746 C562.619331388368,256.46417361339746 584.1022757508341,256.46417361339746 584.1022757508341,256.46417361339746 C584.1022757508341,256.46417361339746 612.5773104954238,51.214617914269695 612.5773104954238,51.214617914269695 C612.5773104954238,51.214617914269695 590.9930314897384,51.214617914269695 590.9930314897384,51.214617914269695 C590.9930314897384,51.214617914269695 595.5530904346016,18.604875420015787 595.5530904346016,18.604875420015787 C595.5530904346016,18.604875420015787 665.7779981854935,18.604875420015787 665.7779981854935,18.604875420015787 C665.7779981854935,18.604875420015787 661.2179392406304,51.214617914269695 661.2179392406304,51.214617914269695 C661.2179392406304,51.214617914269695 639.9376641646026,51.214617914269695 639.9376641646026,51.214617914269695 C639.9376641646026,51.214617914269695 611.4626294200128,256.46417361339746 611.4626294200128,256.46417361339746 C611.4626294200128,256.46417361339746 633.0469084256982,256.46417361339746 633.0469084256982,256.46417361339746 C633.0469084256982,256.46417361339746 628.4868494808352,288.92636071174985 628.4868494808352,288.92636071174985 C628.4868494808352,288.92636071174985 558.3632763731623,288.92636071174985 558.3632763731623,288.92636071174985 ZM762.781179164729,288.92636071174985 C762.781179164729,288.92636071174985 758.8291280791809,213.37799801012983 758.8291280791809,213.37799801012983 C758.8291280791809,213.37799801012983 700.0550350120564,213.37799801012983 700.0550350120564,213.37799801012983 C700.0550350120564,213.37799801012983 676.1400592123298,288.92636071174985 676.1400592123298,288.92636071174985 C676.1400592123298,288.92636071174985 647.1583512516443,288.92636071174985 647.1583512516443,288.92636071174985 C647.1583512516443,288.92636071174985 737.2448490734955,18.604875420015787 737.2448490734955,18.604875420015787 C737.2448490734955,18.604875420015787 773.7253206324004,18.604875420015787 773.7253206324004,18.604875420015787 C773.7253206324004,18.604875420015787 790.4455367635652,288.92636071174985 790.4455367635652,288.92636071174985 C790.4455367635652,288.92636071174985 762.781179164729,288.92636071174985 762.781179164729,288.92636071174985 ZM752.7490494860301,95.77634747655344 C752.7490494860301,95.77634747655344 751.9383723402767,53.57550424869538 751.9383723402767,53.57550424869538 C751.9383723402767,53.57550424869538 748.6956637572629,53.57550424869538 748.6956637572629,53.57550424869538 C748.6956637572629,53.57550424869538 737.2448490734955,95.77634747655344 737.2448490734955,95.77634747655344 C737.2448490734955,95.77634747655344 711.2018457661662,180.4731447240727 711.2018457661662,180.4731447240727 C711.2018457661662,180.4731447240727 757.2077737876741,180.4731447240727 757.2077737876741,180.4731447240727 C757.2077737876741,180.4731447240727 752.7490494860301,95.77634747655344 752.7490494860301,95.77634747655344 ZM880.2839923166383,126.76298061588972 C880.2839923166383,126.76298061588972 872.0758862158847,69.80659779787146 872.0758862158847,69.80659779787146 C872.0758862158847,69.80659779787146 868.9345122760901,69.80659779787146 868.9345122760901,69.80659779787146 C868.9345122760901,69.80659779787146 863.5637761854736,126.76298061588972 863.5637761854736,126.76298061588972 C863.5637761854736,126.76298061588972 841.2701546772539,288.92636071174985 841.2701546772539,288.92636071174985 C841.2701546772539,288.92636071174985 815.2271513699245,288.92636071174985 815.2271513699245,288.92636071174985 C815.2271513699245,288.92636071174985 852.4169654313638,18.604875420015787 852.4169654313638,18.604875420015787 C852.4169654313638,18.604875420015787 885.148055191159,18.604875420015787 885.148055191159,18.604875420015787 C885.148055191159,18.604875420015787 913.8257592221871,180.91581091177744 913.8257592221871,180.91581091177744 C913.8257592221871,180.91581091177744 922.0338653229405,237.8721937297957 922.0338653229405,237.8721937297957 C922.0338653229405,237.8721937297957 925.2765739059544,237.8721937297957 925.2765739059544,237.8721937297957 C925.2765739059544,237.8721937297957 930.5459753533519,180.91581091177744 930.5459753533519,180.91581091177744 C930.5459753533519,180.91581091177744 952.9409315047906,18.604875420015787 952.9409315047906,18.604875420015787 C952.9409315047906,18.604875420015787 978.98393481212,18.604875420015787 978.98393481212,18.604875420015787 C978.98393481212,18.604875420015787 941.7941207506808,288.92636071174985 941.7941207506808,288.92636071174985 C941.7941207506808,288.92636071174985 909.0630309908856,288.92636071174985 909.0630309908856,288.92636071174985 C909.0630309908856,288.92636071174985 880.2839923166383,126.76298061588972 880.2839923166383,126.76298061588972 ZM1066.4770970283055,288.92636071174985 C1066.4770970283055,288.92636071174985 1039.1167433591268,288.92636071174985 1039.1167433591268,288.92636071174985 C1039.1167433591268,288.92636071174985 1076.306557420566,18.604875420015787 1076.306557420566,18.604875420015787 C1076.306557420566,18.604875420015787 1139.5393747893345,18.604875420015787 1139.5393747893345,18.604875420015787 Q1162.947677372965,18.604875420015787 1173.4864802677598,34.68841357329035 Q1184.0252831625546,50.771951726564964 1184.0252831625546,82.49636184540924 Q1184.0252831625546,117.76210146589204 1172.2704645491297,142.55140797736107 Q1160.6169805789239,167.3407144888301 1140.1473826486495,175.16115047161503 Q1161.4276577246774,288.92636071174985 1161.4276577246774,288.92636071174985 C1161.4276577246774,288.92636071174985 1132.6486190504302,288.92636071174985 1132.6486190504302,288.92636071174985 C1132.6486190504302,288.92636071174985 1113.8003754116626,178.2598137855486 1113.8003754116626,178.2598137855486 C1113.8003754116626,178.2598137855486 1081.5759588679632,178.2598137855486 1081.5759588679632,178.2598137855486 C1081.5759588679632,178.2598137855486 1066.4770970283055,288.92636071174985 1066.4770970283055,288.92636071174985 ZM1127.0752136733752,144.17451733227864 Q1146.7341344578963,144.17451733227864 1152.307539834951,110.38433167081195 Q1154.435567342554,97.25190143556944 1155.1449098450883,90.31679782819407 Q1155.8542523476224,83.38169422081882 1155.8542523476224,77.92214457245956 Q1155.8542523476224,66.26526829623305 1151.9022012620744,59.920386272464214 Q1148.0514848197456,53.57550424869538 1138.0193551410468,53.57550424869538 Q1098.9041828584432,53.57550424869538 1098.9041828584432,53.57550424869538 C1098.9041828584432,53.57550424869538 1086.4400217424839,144.17451733227864 1086.4400217424839,144.17451733227864 C1086.4400217424839,144.17451733227864 1127.0752136733752,144.17451733227864 1127.0752136733752,144.17451733227864 ZM1255.8261227428075,293.5005779846994 Q1227.3510879982177,293.5005779846994 1212.1508915153406,270.48193622404966 Q1197.0520296756827,247.4632944633998 1197.0520296756827,204.0820080683289 Q1197.0520296756827,190.65446704128323 1198.5720493239705,172.06248715768135 Q1200.1934036154773,153.47050727407958 1203.4361121984912,133.69808422326497 Q1212.7588993746558,74.08570427901799 1233.5325012345877,44.131958910992864 Q1254.4074377377387,14.030658147066106 1286.9358582110958,14.030658147066106 Q1315.3095583124662,14.030658147066106 1330.5097547953433,37.04929990771592 Q1345.7099512782204,60.06794166836579 1345.7099512782204,103.44922806343669 Q1345.7099512782204,117.02432448638405 1344.0885969867134,135.6163043699858 Q1342.4672426952066,154.20828425358758 1339.3258687554119,173.9807073044022 Q1330.0030815792475,233.59308724864928 1309.1281450760962,263.5468326166743 Q1288.2532085729451,293.5005779846994 1255.8261227428075,293.5005779846994 Q1255.8261227428075,293.5005779846994 1255.8261227428075,293.5005779846994 ZM1258.967496682602,258.3823937601183 Q1280.2477717586298,258.3823937601183 1291.9012557288356,239.49530308471327 Q1303.6560743422606,220.46065701340666 1308.9254757896579,180.17803393226944 Q1315.3095583124662,133.99319501506824 1315.3095583124662,133.99319501506824 Q1317.7415897497265,116.5816582986792 1317.7415897497265,104.62967123064942 Q1317.7415897497265,77.47947838475483 1309.4321490057537,63.46171577410263 Q1301.224042905,49.296397767548854 1283.693149628082,49.296397767548854 Q1262.412874552054,49.296397767548854 1250.658055938629,68.33104383885546 Q1239.0045719684235,87.2181345142605 1233.735170521026,127.50075759539772 Q1227.3510879982177,173.53804111669734 1227.3510879982177,173.53804111669734 Q1224.9190565609574,190.94957783308638 1224.9190565609574,202.90156490111616 Q1224.9190565609574,230.05175774701075 1233.127162661711,244.21707575356453 Q1241.4366034056839,258.3823937601183 1258.967496682602,258.3823937601183 Q1258.967496682602,258.3823937601183 1258.967496682602,258.3823937601183 ZM1464.2974112631412,245.9877405043838 C1464.2974112631412,245.9877405043838 1461.0547026801273,245.9877405043838 1461.0547026801273,245.9877405043838 Q1455.9879705191684,267.67838370191924 1444.8411597650586,280.6632585412602 Q1433.6943490109488,293.5005779846994 1414.5421014425237,293.5005779846994 Q1389.5124445673862,293.5005779846994 1375.5282638031392,270.1868254322464 Q1361.6454176821114,246.7255174838918 1361.6454176821114,204.96734044373858 Q1361.6454176821114,187.55580372734954 1363.7734451897143,167.9309360724365 Q1365.901472697317,148.3060684175236 1368.02950020492,133.69808422326497 Q1376.541610235331,74.08570427901799 1397.416546738482,44.131958910992864 Q1418.2914832416334,14.030658147066106 1450.9212383582094,14.030658147066106 Q1475.950895233347,14.030658147066106 1490.1377452840322,30.704417883947087 Q1504.4259299779367,47.378177620828126 1509.4926621388956,76.00392442573883 Q1484.9696784798539,91.05457480770218 1484.9696784798539,91.05457480770218 Q1482.638981685813,70.9870409650843 1473.9242023689633,60.21549706426737 Q1465.310757695333,49.296397767548854 1449.097214780264,49.296397767548854 Q1427.5129357745786,49.296397767548854 1415.6567825179347,67.74082225524904 Q1403.9019639045098,86.03769134704766 1398.3285585274548,127.50075759539772 Q1391.9444760046465,173.53804111669734 1391.9444760046465,173.53804111669734 Q1389.5124445673862,190.94957783308638 1389.5124445673862,202.90156490111616 Q1389.5124445673862,229.7566469552076 1397.9232199545781,244.06952035766295 Q1406.33399534177,258.3823937601183 1422.5475382568388,258.3823937601183 Q1440.8891086795106,258.3823937601183 1452.5425926497162,243.47929877405653 Q1464.2974112631412,228.57620378799476 1467.7427891325933,204.96734044373858 Q1471.1881670020455,180.17803393226944 1471.1881670020455,180.17803393226944 C1471.1881670020455,180.17803393226944 1438.1530733125926,180.17803393226944 1438.1530733125926,180.17803393226944 C1438.1530733125926,180.17803393226944 1443.0171361871132,146.83051445850748 1443.0171361871132,146.83051445850748 C1443.0171361871132,146.83051445850748 1501.9938985406764,146.83051445850748 1501.9938985406764,146.83051445850748 C1501.9938985406764,146.83051445850748 1482.3349777561552,288.92636071174985 1482.3349777561552,288.92636071174985 C1482.3349777561552,288.92636071174985 1458.4200019564287,288.92636071174985 1458.4200019564287,288.92636071174985 C1458.4200019564287,288.92636071174985 1464.2974112631412,245.9877405043838 1464.2974112631412,245.9877405043838 ZM1619.251836131408,288.92636071174985 C1619.251836131408,288.92636071174985 1615.29978504586,213.37799801012983 1615.29978504586,213.37799801012983 C1615.29978504586,213.37799801012983 1556.5256919787355,213.37799801012983 1556.5256919787355,213.37799801012983 C1556.5256919787355,213.37799801012983 1532.610716179009,288.92636071174985 1532.610716179009,288.92636071174985 C1532.610716179009,288.92636071174985 1503.6290082183232,288.92636071174985 1503.6290082183232,288.92636071174985 C1503.6290082183232,288.92636071174985 1593.7155060401747,18.604875420015787 1593.7155060401747,18.604875420015787 C1593.7155060401747,18.604875420015787 1630.1959775990795,18.604875420015787 1630.1959775990795,18.604875420015787 C1630.1959775990795,18.604875420015787 1646.9161937302442,288.92636071174985 1646.9161937302442,288.92636071174985 C1646.9161937302442,288.92636071174985 1619.251836131408,288.92636071174985 1619.251836131408,288.92636071174985 ZM1609.2197064527093,95.77634747655344 C1609.2197064527093,95.77634747655344 1608.4090293069557,53.57550424869538 1608.4090293069557,53.57550424869538 C1608.4090293069557,53.57550424869538 1605.166320723942,53.57550424869538 1605.166320723942,53.57550424869538 C1605.166320723942,53.57550424869538 1593.7155060401747,95.77634747655344 1593.7155060401747,95.77634747655344 C1593.7155060401747,95.77634747655344 1567.6725027328453,180.4731447240727 1567.6725027328453,180.4731447240727 C1567.6725027328453,180.4731447240727 1613.678430754353,180.4731447240727 1613.678430754353,180.4731447240727 C1613.678430754353,180.4731447240727 1609.2197064527093,95.77634747655344 1609.2197064527093,95.77634747655344 ZM1749.591640739441,53.57550424869538 C1749.591640739441,53.57550424869538 1717.1645549093032,288.92636071174985 1717.1645549093032,288.92636071174985 C1717.1645549093032,288.92636071174985 1689.7028665969053,288.92636071174985 1689.7028665969053,288.92636071174985 C1689.7028665969053,288.92636071174985 1722.129952427043,53.57550424869538 1722.129952427043,53.57550424869538 C1722.129952427043,53.57550424869538 1674.8066740436857,53.57550424869538 1674.8066740436857,53.57550424869538 C1674.8066740436857,53.57550424869538 1679.6707369182063,18.604875420015787 1679.6707369182063,18.604875420015787 C1679.6707369182063,18.604875420015787 1801.6776473540995,18.604875420015787 1801.6776473540995,18.604875420015787 C1801.6776473540995,18.604875420015787 1796.6109151931405,53.57550424869538 1796.6109151931405,53.57550424869538 C1796.6109151931405,53.57550424869538 1749.591640739441,53.57550424869538 1749.591640739441,53.57550424869538 ZM1782.5764629457342,288.92636071174985 C1782.5764629457342,288.92636071174985 1786.8325179609396,256.46417361339746 1786.8325179609396,256.46417361339746 C1786.8325179609396,256.46417361339746 1808.3154623234059,256.46417361339746 1808.3154623234059,256.46417361339746 C1808.3154623234059,256.46417361339746 1836.7904970679956,51.214617914269695 1836.7904970679956,51.214617914269695 C1836.7904970679956,51.214617914269695 1815.2062180623102,51.214617914269695 1815.2062180623102,51.214617914269695 C1815.2062180623102,51.214617914269695 1819.7662770071734,18.604875420015787 1819.7662770071734,18.604875420015787 C1819.7662770071734,18.604875420015787 1889.9911847580654,18.604875420015787 1889.9911847580654,18.604875420015787 C1889.9911847580654,18.604875420015787 1885.4311258132022,51.214617914269695 1885.4311258132022,51.214617914269695 C1885.4311258132022,51.214617914269695 1864.1508507371743,51.214617914269695 1864.1508507371743,51.214617914269695 C1864.1508507371743,51.214617914269695 1835.6758159925846,256.46417361339746 1835.6758159925846,256.46417361339746 C1835.6758159925846,256.46417361339746 1857.26009499827,256.46417361339746 1857.26009499827,256.46417361339746 C1857.26009499827,256.46417361339746 1852.7000360534068,288.92636071174985 1852.7000360534068,288.92636071174985 C1852.7000360534068,288.92636071174985 1782.5764629457342,288.92636071174985 1782.5764629457342,288.92636071174985 Z" fill="#000000"/>
	</g>
	<g>
		<path d="M1185.1825919069818,719.5688708960732 L1186.930390974822,719.5688708960732 L1186.930390974822,721.3166699639138 L1185.1825919069818,721.3166699639138 L1185.1825919069818,719.5688708960732 Z" fill="#000000"/>
	</g>
	<g>
		<path d="M375.6020423478256,463.69109803194345 L377.34984141566605,463.69109803194345 L377.34984141566605,465.4388970997839 L375.6020423478256,465.4388970997839 L375.6020423478256,463.69109803194345 Z" fill="#000000"/>
	</g>
	<g>
		<path d="M425.93863416619405,474.7747289272635 L427.6864332340345,474.7747289272635 L427.6864332340345,466.83711501861796 L425.93863416619405,466.83711501861796 L425.93863416619405,474.7747289272635 Z" fill="#000000"/>
	</g>
	<g>
		<path d="M442.71751588518174,430.1333345939681 L444.4653149530222,430.1333345939681 L444.4653149530222,431.8811336618085 L442.71751588518174,431.8811336618085 L442.71751588518174,430.1333345939681 Z" fill="#000000"/>
	</g>
	<g>
		<path d="M515.4259677750653,532.2048428267287 L517.1737668429058,532.2048428267287 L517.1737668429058,533.9526418945693 L515.4259677750653,533.9526418945693 L515.4259677750653,532.2048428267287 Z" fill="#000000"/>
	</g>
	<g>
		<path d="M1262.0857508919637,526.6118644742013 L1263.833549959804,526.6118644742013 L1263.833549959804,528.3596635420419 L1262.0857508919637,528.3596635420419 L1262.0857508919637,526.6118644742013 Z" fill="#000000"/>
	</g>
	<g>
		<path d="M1400.5114584003688,557.3731387359129 L1402.2592574682092,557.3731387359129 L1402.2592574682092,559.1209378037535 L1400.5114584003688,559.1209378037535 L1400.5114584003688,557.3731387359129 Z" fill="#000000"/>
	</g>
</g></g></svg>